<svg xmlns="http://www.w3.org/2000/svg" version="1.1" xmlns:xlink="http://www.w3.org/1999/xlink" xmlns:svgjs="http://svgjs.dev/svgjs" width="1500" height="420" viewBox="0 0 1500 420"><g transform="matrix(1,0,0,1,-0.9090909090909918,0.4962482386058582)"><svg viewBox="0 0 396 111" data-background-color="#ffffff" preserveAspectRatio="xMidYMid meet" height="420" width="1500" xmlns="http://www.w3.org/2000/svg" xmlns:xlink="http://www.w3.org/1999/xlink"><g id="tight-bounds" transform="matrix(1,0,0,1,0.2400000000000091,-0.13115132020297438)"><svg viewBox="0 0 395.52 111.26230264040595" height="111.26230264040595" width="395.52"><g><svg viewBox="0 0 395.52 111.26230264040595" height="111.26230264040595" width="395.52"><g><svg viewBox="0 0 395.52 111.26230264040595" height="111.26230264040595" width="395.52"><g id="textblocktransform"><svg viewBox="0 0 395.52 111.26230264040595" height="111.26230264040595" width="395.52" id="textblock"><g><svg viewBox="0 0 395.52 111.26230264040595" height="111.26230264040595" width="395.52"><rect width="395.52" height="111.26230264040595" x="0" y="0" opacity="1" fill="#0c0a0f" data-fill-palette-color="tertiary"></rect><g transform="matrix(1,0,0,1,23.607599999999998,23.607599999999998)"><svg width="348.3048" viewBox="3.59 -39.11 283.84000000000003 52.2" height="64.04710264040595" data-palette-color="#ffffff"><path d="M8.96 0L10.52-8.5 3.59-8.5 4.32-12.33 11.23-12.33 13.31-23.41 6.37-23.41 7.1-27.27 14.01-27.27 15.6-35.77 19.68-35.77 18.09-27.27 28.96-27.27 30.54-35.77 34.59-35.77 33.01-27.27 39.97-27.27 39.23-23.41 32.3-23.41 30.22-12.33 37.18-12.33 36.45-8.5 29.52-8.5 27.95 0 23.9 0 25.46-8.5 14.6-8.5 13.04 0 8.96 0ZM17.38-23.41L15.31-12.33 26.17-12.33 28.25-23.41 17.38-23.41ZM65.38-7.45L65.38-21.07Q63.79-21.75 62.53-21.95 61.28-22.14 60.47-22.14L60.47-22.14Q58.49-22.14 56.94-21.44 55.39-20.73 54.34-19.48 53.29-18.24 52.74-16.52 52.19-14.79 52.19-12.77L52.19-12.77Q52.19-10.94 52.66-9.35 53.12-7.76 53.98-6.57 54.83-5.37 56.04-4.69 57.25-4 58.74-4L58.74-4Q60.5-4 62.17-4.92 63.84-5.83 65.38-7.45L65.38-7.45ZM65.38-25.76L65.38-39.11 71.31-39.11 71.31 0 66.48 0 65.67-4.32Q64.82-3.54 63.8-2.7 62.79-1.86 61.59-1.15 60.4-0.44 59.02 0.02 57.64 0.49 56.08 0.49L56.08 0.49Q53.73 0.49 51.88-0.55 50.02-1.59 48.72-3.31 47.41-5.03 46.73-7.25 46.04-9.47 46.04-11.84L46.04-11.84Q46.04-14.97 47.18-17.63 48.31-20.29 50.29-22.23 52.27-24.17 54.93-25.27 57.59-26.37 60.64-26.37L60.64-26.37Q62.03-26.37 63.27-26.17 64.5-25.98 65.38-25.76L65.38-25.76ZM100.63-5.32L100.63-2.37Q99.56-1.61 98.31-1.07 97.07-0.54 95.75-0.18 94.43 0.17 93.12 0.33 91.82 0.49 90.64 0.49L90.64 0.49Q87.93 0.49 85.6-0.34 83.27-1.17 81.55-2.78 79.83-4.39 78.85-6.75 77.88-9.11 77.88-12.16L77.88-12.16Q77.88-15.41 78.97-18.04 80.07-20.68 81.92-22.52 83.76-24.37 86.19-25.37 88.62-26.37 91.25-26.37L91.25-26.37Q93.45-26.37 95.34-25.65 97.24-24.93 98.62-23.51 100-22.09 100.78-19.97 101.56-17.85 101.56-15.04L101.56-15.04Q101.56-14.36 101.5-13.59 101.44-12.82 101.29-12.08L101.29-12.08 84-12.08Q84-10.11 84.7-8.59 85.4-7.08 86.66-6.07 87.93-5.05 89.72-4.53 91.5-4 93.65-4L93.65-4Q94.26-4 95.08-4.05 95.89-4.1 96.82-4.25 97.75-4.39 98.73-4.65 99.7-4.91 100.63-5.32L100.63-5.32ZM84-14.97L96.06-14.97Q96.06-16.75 95.61-18.09 95.16-19.43 94.38-20.34 93.6-21.24 92.56-21.69 91.52-22.14 90.33-22.14L90.33-22.14Q88.98-22.14 87.84-21.61 86.69-21.07 85.83-20.1 84.98-19.14 84.49-17.82 84-16.5 84-14.97L84-14.97ZM114.76 0L105.51-25.88 112.05-25.88 117.16-8.98 118.21-4.49 118.69-4.49 119.69-8.98 124.87-25.88 130.46-25.88 121.18 0 114.76 0ZM156.22-5.32L156.22-2.37Q155.14-1.61 153.9-1.07 152.65-0.54 151.33-0.18 150.01 0.17 148.71 0.33 147.4 0.49 146.23 0.49L146.23 0.49Q143.52 0.49 141.19-0.34 138.86-1.17 137.14-2.78 135.41-4.39 134.44-6.75 133.46-9.11 133.46-12.16L133.46-12.16Q133.46-15.41 134.56-18.04 135.66-20.68 137.5-22.52 139.35-24.37 141.77-25.37 144.2-26.37 146.84-26.37L146.84-26.37Q149.04-26.37 150.93-25.65 152.82-24.93 154.2-23.51 155.58-22.09 156.36-19.97 157.14-17.85 157.14-15.04L157.14-15.04Q157.14-14.36 157.08-13.59 157.02-12.82 156.87-12.08L156.87-12.08 139.59-12.08Q139.59-10.11 140.29-8.59 140.98-7.08 142.25-6.07 143.52-5.05 145.3-4.53 147.08-4 149.23-4L149.23-4Q149.84-4 150.66-4.05 151.48-4.1 152.41-4.25 153.33-4.39 154.31-4.65 155.29-4.91 156.22-5.32L156.22-5.32ZM139.59-14.97L151.65-14.97Q151.65-16.75 151.2-18.09 150.75-19.43 149.97-20.34 149.18-21.24 148.15-21.69 147.11-22.14 145.91-22.14L145.91-22.14Q144.57-22.14 143.42-21.61 142.28-21.07 141.42-20.1 140.57-19.14 140.08-17.82 139.59-16.5 139.59-14.97L139.59-14.97ZM163.9 0L163.9-39.11 169.81-39.11 169.81 0 163.9 0ZM188.9 0.49L188.9 0.49Q185.85 0.49 183.52-0.54 181.19-1.56 179.6-3.31 178.01-5.05 177.19-7.35 176.38-9.64 176.38-12.21L176.38-12.21Q176.38-15.16 177.43-17.74 178.48-20.31 180.37-22.23 182.26-24.15 184.87-25.26 187.49-26.37 190.61-26.37L190.61-26.37Q193.66-26.37 196.01-25.34 198.35-24.32 199.94-22.56 201.52-20.8 202.34-18.49 203.16-16.19 203.16-13.62L203.16-13.62Q203.16-10.64 202.1-8.07 201.03-5.49 199.13-3.59 197.23-1.68 194.61-0.6 192 0.49 188.9 0.49ZM189.93-3.74L189.93-3.74Q191.49-3.74 192.78-4.38 194.08-5.03 195-6.19 195.93-7.35 196.44-8.96 196.96-10.57 196.96-12.52L196.96-12.52Q196.96-14.43 196.46-16.16 195.96-17.9 195-19.23 194.05-20.56 192.69-21.35 191.32-22.14 189.58-22.14L189.58-22.14Q188-22.14 186.7-21.48 185.41-20.83 184.49-19.65 183.58-18.48 183.07-16.86 182.55-15.23 182.55-13.31L182.55-13.31Q182.55-11.38 183.05-9.64 183.55-7.91 184.51-6.59 185.46-5.27 186.83-4.5 188.19-3.74 189.93-3.74ZM215.66-18.46L215.66-4.76Q216.27-4.47 216.96-4.27 217.66-4.08 218.32-3.96 218.98-3.83 219.59-3.78 220.2-3.74 220.64-3.74L220.64-3.74Q222.52-3.74 224.03-4.48 225.54-5.22 226.62-6.51 227.69-7.79 228.27-9.5 228.84-11.21 228.84-13.16L228.84-13.16Q228.84-14.99 228.36-16.58 227.89-18.16 227.03-19.34 226.18-20.51 224.96-21.18 223.74-21.85 222.27-21.85L222.27-21.85Q220.51-21.85 218.82-20.91 217.12-19.97 215.66-18.46L215.66-18.46ZM214.48-25.88L215.36-21.53Q216.24-22.36 217.27-23.22 218.29-24.07 219.48-24.77 220.66-25.46 222.02-25.92 223.37-26.37 224.91-26.37L224.91-26.37Q227.28-26.37 229.15-25.33 231.01-24.29 232.31-22.57 233.6-20.85 234.3-18.62 234.99-16.38 234.99-14.01L234.99-14.01Q234.99-10.89 233.84-8.23 232.7-5.57 230.72-3.63 228.74-1.68 226.08-0.6 223.42 0.49 220.42 0.49L220.42 0.49Q219.83 0.49 219.18 0.45 218.54 0.42 217.91 0.34 217.29 0.27 216.71 0.16 216.12 0.05 215.66-0.1L215.66-0.1 215.66 13.09 209.75 13.09 209.75-25.88 214.48-25.88ZM262.75-5.32L262.75-2.37Q261.67-1.61 260.43-1.07 259.18-0.54 257.87-0.18 256.55 0.17 255.24 0.33 253.94 0.49 252.76 0.49L252.76 0.49Q250.05 0.49 247.72-0.34 245.39-1.17 243.67-2.78 241.95-4.39 240.97-6.75 239.99-9.11 239.99-12.16L239.99-12.16Q239.99-15.41 241.09-18.04 242.19-20.68 244.04-22.52 245.88-24.37 248.31-25.37 250.74-26.37 253.37-26.37L253.37-26.37Q255.57-26.37 257.46-25.65 259.36-24.93 260.73-23.51 262.11-22.09 262.9-19.97 263.68-17.85 263.68-15.04L263.68-15.04Q263.68-14.36 263.62-13.59 263.55-12.82 263.41-12.08L263.41-12.08 246.12-12.08Q246.12-10.11 246.82-8.59 247.51-7.08 248.78-6.07 250.05-5.05 251.84-4.53 253.62-4 255.77-4L255.77-4Q256.38-4 257.19-4.05 258.01-4.1 258.94-4.25 259.87-4.39 260.84-4.65 261.82-4.91 262.75-5.32L262.75-5.32ZM246.12-14.97L258.18-14.97Q258.18-16.75 257.73-18.09 257.28-19.43 256.5-20.34 255.72-21.24 254.68-21.69 253.64-22.14 252.45-22.14L252.45-22.14Q251.1-22.14 249.96-21.61 248.81-21.07 247.95-20.1 247.1-19.14 246.61-17.82 246.12-16.5 246.12-14.97L246.12-14.97ZM270.44 0L270.44-25.88 275.22-25.88 276.05-18.16Q276.39-18.8 276.76-19.47 277.13-20.14 277.49-20.76 277.86-21.39 278.18-21.9 278.49-22.41 278.71-22.75L278.71-22.75Q279.23-23.51 279.87-24.18 280.52-24.85 281.28-25.33 282.03-25.81 282.91-26.09 283.79-26.37 284.82-26.37L284.82-26.37Q285.52-26.37 286.23-26.2 286.94-26.03 287.43-25.66L287.43-25.66 286.79-20.21Q286.35-20.34 285.77-20.37 285.18-20.41 284.72-20.41L284.72-20.41Q283.16-20.41 281.94-19.96 280.71-19.51 279.73-18.71 278.74-17.92 277.92-16.85 277.1-15.77 276.34-14.53L276.34-14.53 276.34 0 270.44 0Z" opacity="1" transform="matrix(1,0,0,1,0,0)" fill="#ffffff" class="wordmark-text-0" data-fill-palette-color="quaternary" id="text-0"></path></svg></g></svg></g></svg></g></svg></g></svg></g><defs></defs></svg><rect width="395.52" height="111.26230264040595" fill="none" stroke="none" visibility="hidden"></rect></g></svg></g></svg>